<svg width="14" height="14" viewBox="0 0 14 14" fill="none" xmlns="http://www.w3.org/2000/svg">
<path d="M5.88008 6.33508C5.90925 6.14258 5.97341 5.97341 6.05508 5.83341C6.23008 5.50675 6.52758 5.33758 6.93008 5.33175C7.19258 5.33175 7.43175 5.44841 7.60091 5.61758C7.76425 5.79841 7.87508 6.04925 7.87508 6.30008H8.92508C8.91341 6.02591 8.86091 5.77508 8.75008 5.54175C8.66258 5.32008 8.52841 5.12175 8.35341 4.95841C7.50758 4.17675 5.93841 4.28758 5.22091 5.17425C4.46841 6.14841 4.45091 7.85175 5.21508 8.82591C5.92091 9.69508 7.46675 9.81758 8.30675 9.04175C8.48758 8.89591 8.63341 8.71508 8.75008 8.50508C8.84341 8.29508 8.90758 8.07341 8.91341 7.83425H7.87508C7.87508 7.95675 7.83425 8.06758 7.78175 8.16675C7.72925 8.27758 7.65925 8.36508 7.58341 8.44091C7.39091 8.59258 7.16341 8.67425 6.91841 8.67425C6.70841 8.66841 6.53341 8.62758 6.39925 8.54008C6.24802 8.45505 6.12756 8.32438 6.05508 8.16675C5.76341 7.64175 5.81008 6.91258 5.88008 6.33508ZM7.00008 1.16675C3.79175 1.16675 1.16675 3.79175 1.16675 7.00008C1.47591 14.7409 12.5417 14.7351 12.8334 7.00008C12.8334 3.79175 10.2084 1.16675 7.00008 1.16675ZM7.00008 11.6667C4.42758 11.6667 2.33341 9.57258 2.33341 7.00008C2.59008 0.810915 11.4101 0.810915 11.6667 7.00008C11.6667 9.57258 9.57258 11.6667 7.00008 11.6667Z" fill="white"/>
</svg>
