<svg width="112" height="112" viewBox="0 0 112 112" fill="none" xmlns="http://www.w3.org/2000/svg">
<rect width="100" height="100" transform="translate(6 6)" fill="#817977"/>
<path fill-rule="evenodd" clip-rule="evenodd" d="M19.4517 41.7413C17.9818 38.2783 19.5974 34.2793 23.0604 32.8094C26.5235 31.3394 30.5224 32.9551 31.9924 36.4181L40.5881 56.6684L49.6252 36.3708C50.5767 34.2335 52.4936 32.8277 54.6338 32.438C57.7921 31.7122 61.1118 33.3313 62.4221 36.4181L71.0178 56.6684L80.0549 36.3708C81.5851 32.9339 85.6116 31.3883 89.0484 32.9184C92.4853 34.4486 94.0309 38.4752 92.5007 41.912L77.5479 75.4966C76.5915 77.6446 74.6601 79.0539 72.5069 79.4352C69.2131 80.446 65.6217 78.8231 64.2458 75.5818L55.8679 55.8445L47.1182 75.4966C46.1618 77.6446 44.2304 79.0539 42.0772 79.4352C38.7834 80.4461 35.192 78.8231 33.8161 75.5818L19.4517 41.7413Z" fill="#DEDDD8"/>
</svg>
