<svg width="40" height="41" viewBox="0 0 40 41" fill="none" xmlns="http://www.w3.org/2000/svg">
    <rect y="0.5" width="40" height="40" rx="8.64" fill="#1480FF"/>
    <path fill-rule="evenodd" clip-rule="evenodd" d="M19.4524 11.0755C18.5968 11.2317 17.8306 11.7939 17.4501 12.6484L13.8352 20.7675L10.3969 12.6673C9.80892 11.2821 8.20933 10.6358 6.82413 11.2238C5.43893 11.8118 4.79265 13.4114 5.38064 14.7966L11.1264 28.3328C11.6767 29.6292 13.1131 30.2784 14.4306 29.8742C15.292 29.7218 16.0647 29.158 16.4473 28.2987L19.9472 20.4379L23.2984 28.3327C23.8487 29.6292 25.2851 30.2784 26.6025 29.8742C27.4639 29.7218 28.2367 29.158 28.6193 28.2987L34.6004 14.8648C35.2125 13.4901 34.5942 11.8795 33.2195 11.2674C31.8448 10.6554 30.2341 11.2736 29.6221 12.6483L26.0072 20.7675L22.5689 12.6673C22.0446 11.4322 20.7161 10.7845 19.4524 11.0755Z" fill="white"/>
</svg>
