<svg width="32" height="32" viewBox="0 0 32 32" fill="none" xmlns="http://www.w3.org/2000/svg">
<path d="M26.6667 4H5.33333C4.97971 4 4.64057 4.14048 4.39052 4.39052C4.14048 4.64057 4 4.97971 4 5.33333V26.6667C4 27.0203 4.14048 27.3594 4.39052 27.6095C4.64057 27.8595 4.97971 28 5.33333 28H26.6667C27.0203 28 27.3594 27.8595 27.6095 27.6095C27.8595 27.3594 28 27.0203 28 26.6667V5.33333C28 4.97971 27.8595 4.64057 27.6095 4.39052C27.3594 4.14048 27.0203 4 26.6667 4ZM23.9387 9.68667L22.6507 10.92C22.5963 10.9615 22.5543 11.0171 22.5294 11.0809C22.5044 11.1446 22.4975 11.2139 22.5093 11.2813V20.3493C22.4975 20.4167 22.5044 20.4861 22.5294 20.5498C22.5543 20.6135 22.5963 20.6692 22.6507 20.7107L23.9067 21.9453V22.2173H17.5853V21.9453L18.888 20.6813C19.0173 20.5533 19.0173 20.5147 19.0173 20.32V12.9893L15.396 22.184H14.9053L10.6907 12.9893V19.152C10.674 19.2801 10.6865 19.4102 10.7271 19.5328C10.7677 19.6554 10.8355 19.7672 10.9253 19.86L12.62 21.9147V22.1853H7.81467V21.9147L9.50933 19.86C9.59853 19.7673 9.66477 19.6549 9.70274 19.532C9.74071 19.409 9.74936 19.2789 9.728 19.152V12.0267C9.73797 11.9291 9.72482 11.8306 9.6896 11.7391C9.65439 11.6476 9.59811 11.5657 9.52533 11.5L8.01867 9.68667V9.416H12.6933L16.3067 17.34L19.4827 9.416H23.94V9.68667H23.9387Z" fill="white"/>
</svg>
