<svg width="32" height="32" viewBox="0 0 32 32" fill="none" xmlns="http://www.w3.org/2000/svg">
<path fill-rule="evenodd" clip-rule="evenodd" d="M4.7998 8.00002C4.7998 7.57568 4.96838 7.16871 5.26843 6.86865C5.56849 6.5686 5.97546 6.40002 6.3998 6.40002H25.5998C26.0242 6.40002 26.4311 6.5686 26.7312 6.86865C27.0312 7.16871 27.1998 7.57568 27.1998 8.00002C27.1998 8.42437 27.0312 8.83133 26.7312 9.13139C26.4311 9.43145 26.0242 9.60002 25.5998 9.60002H6.3998C5.97546 9.60002 5.56849 9.43145 5.26843 9.13139C4.96838 8.83133 4.7998 8.42437 4.7998 8.00002Z" fill="#817977"/>
<path fill-rule="evenodd" clip-rule="evenodd" d="M4.7998 16C4.7998 15.5757 4.96838 15.1687 5.26843 14.8687C5.56849 14.5686 5.97546 14.4 6.3998 14.4H25.5998C26.0242 14.4 26.4311 14.5686 26.7312 14.8687C27.0312 15.1687 27.1998 15.5757 27.1998 16C27.1998 16.4244 27.0312 16.8313 26.7312 17.1314C26.4311 17.4315 26.0242 17.6 25.5998 17.6H6.3998C5.97546 17.6 5.56849 17.4315 5.26843 17.1314C4.96838 16.8313 4.7998 16.4244 4.7998 16Z" fill="#817977"/>
<path fill-rule="evenodd" clip-rule="evenodd" d="M4.7998 24C4.7998 23.5757 4.96838 23.1687 5.26843 22.8687C5.56849 22.5686 5.97546 22.4 6.3998 22.4H25.5998C26.0242 22.4 26.4311 22.5686 26.7312 22.8687C27.0312 23.1687 27.1998 23.5757 27.1998 24C27.1998 24.4244 27.0312 24.8313 26.7312 25.1314C26.4311 25.4315 26.0242 25.6 25.5998 25.6H6.3998C5.97546 25.6 5.56849 25.4315 5.26843 25.1314C4.96838 24.8313 4.7998 24.4244 4.7998 24Z" fill="#817977"/>
</svg>
